<svg width="24" height="24" viewBox="0 0 24 24" fill="none" xmlns="http://www.w3.org/2000/svg">
<g clip-path="url(#clip0_470_2136)">
<path d="M9.00176 19.0292C8.76811 19.0297 8.54167 18.9483 8.36176 18.7992C8.2605 18.7153 8.1768 18.6122 8.11545 18.4958C8.0541 18.3795 8.0163 18.2522 8.00422 18.1212C7.99215 17.9902 8.00603 17.8582 8.04507 17.7326C8.08412 17.607 8.14756 17.4903 8.23176 17.3892L12.7118 12.0292L8.39176 6.65924C8.30869 6.55695 8.24666 6.43925 8.20923 6.31291C8.1718 6.18657 8.15971 6.05408 8.17364 5.92305C8.18758 5.79203 8.22728 5.66504 8.29045 5.54941C8.35363 5.43377 8.43903 5.33176 8.54176 5.24924C8.64523 5.1582 8.76639 5.08953 8.89765 5.04754C9.02892 5.00556 9.16744 4.99115 9.30453 5.00524C9.44163 5.01932 9.57433 5.06159 9.69431 5.12939C9.81429 5.19719 9.91897 5.28906 10.0018 5.39924L14.8318 11.3992C14.9788 11.5782 15.0592 11.8026 15.0592 12.0342C15.0592 12.2659 14.9788 12.4903 14.8318 12.6692L9.83176 18.6692C9.73144 18.7903 9.60401 18.8859 9.4598 18.9485C9.31559 19.011 9.15867 19.0387 9.00176 19.0292Z" fill="#D0B070"/>
</g>
<defs>
<clipPath id="clip0_470_2136">
<rect width="24" height="24" fill="white"/>
</clipPath>
</defs>
</svg>
