<svg width="26" height="26" viewBox="0 0 26 26" fill="none" xmlns="http://www.w3.org/2000/svg">
<path d="M6.761 3.16378H19.249C19.1799 2.31833 18.667 1.85718 17.7201 1.85718H8.28008C7.34299 1.85718 6.82018 2.31833 6.761 3.16378ZM4.74873 5.9403H21.2613C21.1231 5.0276 20.6496 4.50881 19.604 4.50881H6.4059C5.3603 4.50881 4.88682 5.0276 4.74873 5.9403ZM5.91269 23.2143H20.0874C22.1392 23.2143 23.2143 22.1767 23.2143 20.1976V10.523C23.2143 8.54389 22.1392 7.5063 20.0874 7.5063H5.91269C3.85109 7.5063 2.78577 8.53428 2.78577 10.523V20.1976C2.78577 22.1767 3.85109 23.2143 5.91269 23.2143Z" fill="#BDBDBD"/>
</svg>
