<svg width="131" height="32" viewBox="0 0 131 32" fill="none" xmlns="http://www.w3.org/2000/svg">
<path d="M113.525 29V7.7H118.175V9.47H118.265C118.505 8.9 120.125 7.4 122.885 7.4C126.425 7.4 130.325 10.07 130.325 15.5C130.325 20.93 126.425 23.6 122.885 23.6C120.125 23.6 118.505 22.1 118.265 21.53H118.175V29H113.525ZM118.055 15.5C118.055 18.05 119.885 19.46 121.925 19.46C123.905 19.46 125.735 18.02 125.735 15.5C125.735 12.98 123.905 11.54 121.925 11.54C119.885 11.54 118.055 12.95 118.055 15.5Z" fill="white"/>
<path d="M94.9512 29V7.7H99.6012V9.47H99.6912C99.9312 8.9 101.551 7.4 104.311 7.4C107.851 7.4 111.751 10.07 111.751 15.5C111.751 20.93 107.851 23.6 104.311 23.6C101.551 23.6 99.9312 22.1 99.6912 21.53H99.6012V29H94.9512ZM99.4812 15.5C99.4812 18.05 101.311 19.46 103.351 19.46C105.331 19.46 107.161 18.02 107.161 15.5C107.161 12.98 105.331 11.54 103.351 11.54C101.311 11.54 99.4812 12.95 99.4812 15.5Z" fill="white"/>
<path d="M80.1722 2H85.2122L93.3422 23.3H88.2122L87.0122 19.91H78.3722L77.1722 23.3H72.0422L80.1722 2ZM79.9622 15.53H85.4222L82.6922 7.85L79.9622 15.53Z" fill="white"/>
<path d="M68.0927 23.48C65.2127 23.48 63.1127 22.07 63.1127 18.5V11.39H60.8027V7.7H63.1127V3.71H67.7627V7.7H71.0327V11.39H67.7627V17.75C67.7627 18.53 68.2127 19.37 69.6227 19.37C69.9827 19.37 70.5227 19.31 71.0927 19.13V22.67C70.4927 23.27 69.1727 23.48 68.0927 23.48Z" fill="white"/>
<path d="M44.0918 23.3V7.7H48.7418V9.68C49.6118 8.36 51.1418 7.4 53.3618 7.4C56.5118 7.4 59.1818 9.35 59.1818 14.12V23.3H54.5318V14.93C54.5318 12.98 53.5418 11.54 51.6218 11.54C49.7318 11.54 48.7418 12.98 48.7418 14.93V23.3H44.0918Z" fill="white"/>
<path d="M31.9146 23.6C28.3746 23.6 24.4746 20.93 24.4746 15.5C24.4746 10.07 28.3746 7.4 31.9146 7.4C34.6746 7.4 36.2946 8.9 36.5346 9.47H36.6246V7.7H41.2746V23.3H36.6246V21.53H36.5346C36.2946 22.1 34.6746 23.6 31.9146 23.6ZM29.0646 15.5C29.0646 18.02 30.8946 19.46 32.8746 19.46C34.9146 19.46 36.7446 18.05 36.7446 15.5C36.7446 12.95 34.9146 11.54 32.8746 11.54C30.8946 11.54 29.0646 12.98 29.0646 15.5Z" fill="white"/>
<path d="M17.7539 23.3V2H22.4039V23.3H17.7539Z" fill="white"/>
<path d="M0 23.3V2H7.8C12.42 2 15.54 4.85 15.54 9.38C15.54 13.82 12.42 16.7 7.8 16.7H4.74V23.3H0ZM4.74 12.35H7.35C9.27 12.35 10.74 11.66 10.74 9.38C10.74 7.1 9.27 6.35 7.35 6.35H4.74V12.35Z" fill="white"/>
</svg>
